<svg width="16" height="16" viewBox="0 0 16 16" fill="none" xmlns="http://www.w3.org/2000/svg">
<path d="M12.6667 7.33333H8.66666V3.33333C8.66666 3.15652 8.59642 2.98695 8.47139 2.86193C8.34637 2.7369 8.1768 2.66666 7.99999 2.66666C7.82318 2.66666 7.65361 2.7369 7.52858 2.86193C7.40356 2.98695 7.33332 3.15652 7.33332 3.33333V7.33333H3.33332C3.15651 7.33333 2.98694 7.40357 2.86192 7.52859C2.73689 7.65362 2.66666 7.82319 2.66666 8C2.66666 8.17681 2.73689 8.34638 2.86192 8.4714C2.98694 8.59643 3.15651 8.66666 3.33332 8.66666H7.33332V12.6667C7.33332 12.8435 7.40356 13.013 7.52858 13.1381C7.65361 13.2631 7.82318 13.3333 7.99999 13.3333C8.1768 13.3333 8.34637 13.2631 8.47139 13.1381C8.59642 13.013 8.66666 12.8435 8.66666 12.6667V8.66666H12.6667C12.8435 8.66666 13.013 8.59643 13.1381 8.4714C13.2631 8.34638 13.3333 8.17681 13.3333 8C13.3333 7.82319 13.2631 7.65362 13.1381 7.52859C13.013 7.40357 12.8435 7.33333 12.6667 7.33333Z" fill="#75839D"/>
</svg>
