<svg width="24" height="24" viewBox="0 0 24 24" fill="none" xmlns="http://www.w3.org/2000/svg">
<path d="M22.2646 2.42773C21.9799 2.19086 21.6363 2.03563 21.2704 1.97853C20.9044 1.92144 20.5298 1.96464 20.1865 2.10352L2.26561 9.33886C1.88236 9.49655 1.55613 9.76705 1.33021 10.1145C1.10429 10.4619 0.989379 10.8698 1.00072 11.2841C1.01205 11.6984 1.14911 12.0994 1.39369 12.4339C1.63827 12.7685 1.97881 13.0207 2.37011 13.1572L5.99511 14.418L8.01561 21.0996C8.04306 21.1888 8.08291 21.2738 8.13399 21.352C8.14174 21.364 8.15267 21.3729 8.16091 21.3846C8.21991 21.4669 8.29122 21.5397 8.37233 21.6003C8.3954 21.6179 8.4175 21.6344 8.44216 21.65C8.53709 21.713 8.64222 21.759 8.75288 21.7861L8.76472 21.7871L8.77143 21.79C8.83797 21.8035 8.90569 21.8104 8.97358 21.8105C8.98012 21.8105 8.98591 21.8074 8.99238 21.8073C9.09485 21.8055 9.19641 21.7878 9.29347 21.755C9.31605 21.7473 9.3354 21.7344 9.35731 21.7251C9.42969 21.6951 9.49826 21.6567 9.5616 21.6106C9.61233 21.5678 9.66307 21.5251 9.71382 21.4824L12.416 18.499L16.4462 21.6211C16.8011 21.8973 17.2378 22.0474 17.6875 22.0478C18.1586 22.0472 18.6153 21.8846 18.9808 21.5874C19.3464 21.2901 19.5986 20.8762 19.6953 20.415L22.958 4.39844C23.0319 4.03796 23.0065 3.66416 22.8843 3.31703C22.7622 2.9699 22.548 2.6625 22.2646 2.42773ZM9.3701 14.7363C9.23145 14.8744 9.13666 15.0504 9.09764 15.2422L8.78813 16.7462L8.00408 14.1531L12.0693 12.0362L9.3701 14.7363ZM17.6719 20.04L12.9092 16.3505C12.7099 16.1966 12.4599 16.1233 12.2091 16.1454C11.9583 16.1675 11.7249 16.2833 11.5556 16.4697L10.6902 17.4249L10.9961 15.9384L18.0791 8.85543C18.2481 8.6866 18.3511 8.46279 18.3694 8.22456C18.3877 7.98633 18.3201 7.74942 18.1788 7.55675C18.0375 7.36409 17.8318 7.2284 17.5991 7.17427C17.3664 7.12014 17.122 7.15116 16.9101 7.26169L6.74486 12.5543L3.0205 11.1914L20.999 3.999L17.6719 20.04Z" fill="#0061FF"/>
</svg>
